<svg height="90"
     width="460"
     xmlns="http://www.w3.org/2000/svg"
     version="1.1">
  <rect height="90" width="460"/>
  <rect height="20" width="10" fill="white" x="10" y="40"/>
  <polygon points="20,30 40,30 40,10 50,10 50,70 20,70 20,60 40,60 40,40 20,40" fill="white"/>
  <rect height="20" width="10" fill="white" x="60" y="30"/>
  <rect height="10" width="10" fill="white" x="60" y="60"/>
  <rect height="10" width="20" fill="white" x="70" y="70"/>
  <polygon points="70,50 90,50 90,30 100,30 100,70 90,70 90,60 70,60" fill="white"/>
  <polygon points="110,30 140,30 140,40 120,40 120,70 110,70" fill="white"/>
  <rect height="30" width="10" fill="white" x="140" y="40"/>
  <rect height="20" width="10" fill="white" x="160" y="40"/>
  <polygon points="170,30 200,30 200,70 170,70 170,60 190,60 190,40 170,40" fill="white"/>
  <polygon points="210,10 220,10 220,40 240,40 240,50 220,50 220,70 210,70" fill="white"/>
  <rect height="10" width="10" fill="white" x="240" y="30"/>
  <rect height="20" width="10" fill="white" x="240" y="50"/>
  <polygon points="270,60 280,60 280,50 290,50 290,60 300,60 300,70 290,70 290,80 280,80 280,70 270,70" fill="white"/>
  <polygon points="310,30 340,30 340,40 320,40 320,70 310,70" fill="white"/>
  <rect height="30" width="10" fill="white" x="340" y="40"/>
  <polygon points="360,40 370,40 370,50 380,50 380,60 390,60 390,70 370,70 370,60 360,60" fill="white"/>
  <polygon points="370,30 390,30 390,40 400,40 400,50 380,50 380,40 370,40" fill="white"/>
  <polygon points="410,30 420,30 420,10 430,10 430,30 440,30 440,40 430,40 430,60 420,60 420,40 410,40" fill="white"/>
  <rect height="10" width="10" fill="white" x="430" y="60"/>
  <rect height="10" width="10" fill="white" x="440" y="50"/>
</svg>
