<svg height="90"
     width="460"
     xmlns="http://www.w3.org/2000/svg"
     version="1.1">
  <rect height="90" width="460"/>
  <rect height="20" width="10" fill="white" x="10" y="40"/>
  <rect height="10" width="20" fill="white" x="20" y="60"/>
  <rect height="10" width="20" fill="white" x="20" y="30"/>
  <rect height="60" width="10" fill="white" x="40" y="10"/>
  <rect height="20" width="10" fill="white" x="60" y="30"/>
  <rect height="10" width="20" fill="white" x="70" y="50"/>
  <rect height="10" width="10" fill="white" x="60" y="60"/>
  <rect height="10" width="20" fill="white" x="70" y="70"/>
  <rect height="40" width="10" fill="white" x="90" y="30"/>
  <rect height="40" width="10" fill="white" x="110" y="30"/>
  <rect height="10" width="20" fill="white" x="120" y="30"/>
  <rect height="30" width="10" fill="white" x="140" y="40"/>
  <rect height="20" width="10" fill="white" x="160" y="40"/>
  <rect height="10" width="20" fill="white" x="170" y="30"/>
  <rect height="10" width="20" fill="white" x="170" y="60"/>
  <rect height="40" width="10" fill="white" x="190" y="30"/>
  <rect height="60" width="10" fill="white" x="210" y="10"/>
  <rect height="10" width="20" fill="white" x="220" y="40"/>
  <rect height="10" width="10" fill="white" x="240" y="30"/>
  <rect height="20" width="10" fill="white" x="240" y="50"/>
  <rect height="10" width="30" fill="white" x="270" y="60"/>
  <rect height="30" width="10" fill="white" x="280" y="50"/>
  <rect height="40" width="10" fill="white" x="310" y="30"/>
  <rect height="10" width="20" fill="white" x="320" y="30"/>
  <rect height="30" width="10" fill="white" x="340" y="40"/>
  <rect height="10" width="20" fill="white" x="370" y="30"/>
  <rect height="10" width="20" fill="white" x="380" y="40"/>
  <rect height="10" width="20" fill="white" x="360" y="50"/>
  <rect height="10" width="20" fill="white" x="370" y="60"/>
  <rect height="10" width="10" fill="white" x="360" y="40"/>
  <rect height="50" width="10" fill="white" x="420" y="10"/>
  <rect height="10" width="30" fill="white" x="410" y="30"/>
  <rect height="10" width="10" fill="white" x="430" y="60"/>
  <rect height="10" width="10" fill="white" x="440" y="50"/>
</svg>
